<svg id="Capa_1" enable-background="new 0 0 512 512" height="512" viewBox="0 0 512 512" width="512" xmlns="http://www.w3.org/2000/svg"><path d="m86.557 0v512h338.886v-512zm106.193 78.229v-48.111h126.5v48.111zm86.994 30.117c-5.081 7.727-13.824 12.842-23.744 12.842s-18.662-5.115-23.744-12.842zm-117.112-78.228v78.228h36.964c6.833 24.737 29.524 42.96 56.404 42.96s49.571-18.223 56.404-42.96h36.964v-78.228h45.958v210.824h-84.319c-6.624-24.165-28.767-41.98-55.006-41.98s-48.383 17.815-55.006 41.98h-84.319v-210.824zm71.063 210.823c4.844-7.152 13.035-11.862 22.305-11.862s17.46 4.71 22.305 11.862zm44.61 30.118c-4.844 7.152-13.035 11.862-22.305 11.862s-17.46-4.71-22.305-11.862zm40.945 163.7v47.123h-126.5v-47.123zm-86.994-30.117c5.082-7.727 13.824-12.842 23.744-12.842s18.662 5.115 23.744 12.842zm117.112 77.24v-77.241h-36.964c-6.833-24.737-29.524-42.96-56.404-42.96s-49.571 18.223-56.404 42.96h-36.964v77.241h-45.958v-210.823h84.319c6.624 24.165 28.767 41.98 55.006 41.98s48.383-17.815 55.006-41.98h84.319v210.824h-45.956z"/></svg>