<svg id="Capa_1" enable-background="new 0 0 512 512" height="512" viewBox="0 0 512 512" width="512" xmlns="http://www.w3.org/2000/svg"><path d="m256 112c-79.402 0-144 64.598-144 144s64.598 144 144 144 144-64.598 144-144-64.598-144-144-144zm0 258c-62.859 0-114-51.14-114-114s51.141-114 114-114 114 51.14 114 114-51.141 114-114 114z"/><path d="m256 93c8.284 0 15-6.716 15-15v-63c0-8.284-6.716-15-15-15s-15 6.716-15 15v63c0 8.284 6.716 15 15 15z"/><path d="m256 419c-8.284 0-15 6.716-15 15v63c0 8.284 6.716 15 15 15s15-6.716 15-15v-63c0-8.284-6.716-15-15-15z"/><path d="m174.024 97.29c2.393 5.777 7.978 9.264 13.864 9.264 1.913 0 3.857-.368 5.734-1.146 7.653-3.17 11.288-11.945 8.118-19.599l-8.802-21.249c-3.17-7.654-11.946-11.287-19.599-8.118-7.653 3.17-11.288 11.945-8.118 19.599z"/><path d="m337.976 414.71c-3.17-7.654-11.945-11.288-19.599-8.118-7.653 3.17-11.288 11.945-8.118 19.599l8.802 21.249c2.393 5.777 7.978 9.264 13.864 9.264 1.913 0 3.857-.368 5.734-1.146 7.653-3.17 11.288-11.945 8.118-19.599z"/><path d="m64.56 192.939 21.25 8.802c1.878.777 3.821 1.146 5.734 1.146 5.886 0 11.472-3.488 13.864-9.264 3.17-7.654-.465-16.428-8.118-19.599l-21.25-8.802c-7.657-3.169-16.429.464-19.599 8.118s.465 16.429 8.119 19.599z"/><path d="m447.44 319.061-21.25-8.802c-7.656-3.17-16.429.465-19.599 8.118-3.17 7.654.465 16.428 8.118 19.599l21.25 8.802c1.878.777 3.821 1.146 5.734 1.146 5.886 0 11.472-3.488 13.864-9.264 3.172-7.654-.463-16.429-8.117-19.599z"/><path d="m97.29 337.976c7.653-3.17 11.288-11.945 8.118-19.599-3.17-7.653-11.946-11.288-19.599-8.118l-21.25 8.802c-7.653 3.17-11.288 11.945-8.118 19.599 2.393 5.776 7.978 9.264 13.864 9.264 1.913 0 3.857-.368 5.734-1.146z"/><path d="m414.71 174.024c-7.653 3.17-11.288 11.945-8.118 19.599 2.393 5.776 7.978 9.264 13.864 9.264 1.913 0 3.857-.368 5.734-1.146l21.25-8.802c7.653-3.17 11.288-11.945 8.118-19.599-3.17-7.653-11.945-11.288-19.599-8.118z"/><path d="m193.623 406.592c-7.652-3.17-16.429.464-19.599 8.118l-8.802 21.249c-3.17 7.653.465 16.428 8.118 19.599 1.877.777 3.821 1.146 5.734 1.146 5.886 0 11.472-3.487 13.864-9.264l8.802-21.249c3.171-7.653-.464-16.428-8.117-19.599z"/><path d="m318.377 105.408c1.877.777 3.821 1.146 5.734 1.146 5.886 0 11.472-3.487 13.864-9.264l8.802-21.249c3.17-7.653-.465-16.428-8.118-19.599-7.652-3.168-16.429.464-19.599 8.118l-8.802 21.249c-3.169 7.653.466 16.428 8.119 19.599z"/><path d="m497 241h-63c-8.284 0-15 6.716-15 15s6.716 15 15 15h63c8.284 0 15-6.716 15-15s-6.716-15-15-15z"/><path d="m93 256c0-8.284-6.716-15-15-15h-63c-8.284 0-15 6.716-15 15s6.716 15 15 15h63c8.284 0 15-6.716 15-15z"/><path d="m381.865 145.135c3.838 0 7.678-1.465 10.606-4.394l44.548-44.547c5.858-5.857 5.858-15.355 0-21.213-5.856-5.857-15.354-5.858-21.213 0l-44.548 44.547c-5.858 5.857-5.858 15.355 0 21.213 2.93 2.929 6.768 4.394 10.607 4.394z"/><path d="m119.528 371.259-44.548 44.547c-5.858 5.857-5.858 15.355 0 21.213 2.929 2.929 6.768 4.394 10.606 4.394s7.678-1.465 10.606-4.394l44.548-44.547c5.858-5.857 5.858-15.355 0-21.213-5.856-5.858-15.354-5.858-21.212 0z"/><path d="m392.472 371.259c-5.857-5.858-15.355-5.858-21.213 0s-5.858 15.355 0 21.213l44.548 44.547c2.929 2.929 6.768 4.394 10.606 4.394s7.678-1.464 10.606-4.394c5.858-5.858 5.858-15.355 0-21.213z"/><path d="m119.528 140.741c2.929 2.929 6.768 4.394 10.606 4.394s7.678-1.464 10.606-4.394c5.858-5.858 5.858-15.355 0-21.213l-44.547-44.547c-5.857-5.858-15.355-5.858-21.213 0s-5.858 15.355 0 21.213z"/></svg>